<svg xmlns="http://www.w3.org/2000/svg" xmlns:xlink="http://www.w3.org/1999/xlink" width="384" zoomAndPan="magnify" viewBox="0 0 288 383.999986" height="512" preserveAspectRatio="xMidYMid meet" version="1.0"><path fill="#132c33" d="M 167.753906 24 C 75.058594 24 0 99.226562 0 192 C 0 284.773438 75.058594 360 167.753906 360 C 213.238281 360 254.445312 341.851562 284.691406 312.449219 C 288.445312 308.773438 289.421875 303.074219 287.019531 298.425781 C 284.617188 293.773438 279.4375 291.148438 274.261719 292.050781 C 266.90625 293.324219 259.398438 294 251.667969 294 C 178.9375 294 119.941406 234.898438 119.941406 162 C 119.941406 112.648438 146.960938 69.675781 186.96875 47.023438 C 191.546875 44.398438 193.875 39.148438 192.746094 34.050781 C 191.621094 28.949219 187.269531 25.125 182.015625 24.675781 C 177.285156 24.300781 172.558594 24.074219 167.753906 24.074219 Z M 167.753906 24 " fill-opacity="1" fill-rule="nonzero"/></svg>