<svg xmlns="http://www.w3.org/2000/svg" xmlns:xlink="http://www.w3.org/1999/xlink" width="512" zoomAndPan="magnify" viewBox="0 0 384 383.999986" height="512" preserveAspectRatio="xMidYMid meet" version="1.0"><path fill="#f5f5f3" d="M 271.125 0.898438 C 274.875 2.476562 277.574219 5.851562 278.324219 9.824219 L 293.25 90.75 L 374.175781 105.601562 C 378.148438 106.351562 381.523438 109.050781 383.101562 112.800781 C 384.675781 116.550781 384.226562 120.824219 381.898438 124.199219 L 335.175781 192 L 381.898438 259.726562 C 384.226562 263.101562 384.675781 267.375 383.101562 271.125 C 381.523438 274.875 378.148438 277.574219 374.175781 278.324219 L 293.25 293.25 L 278.324219 374.175781 C 277.574219 378.148438 274.875 381.523438 271.125 383.101562 C 267.375 384.675781 263.101562 384.226562 259.726562 381.898438 L 192 335.175781 L 124.273438 381.898438 C 120.898438 384.226562 116.625 384.675781 112.875 383.101562 C 109.125 381.523438 106.425781 378.148438 105.675781 374.175781 L 90.75 293.25 L 9.824219 278.324219 C 5.851562 277.574219 2.476562 274.875 0.898438 271.125 C -0.675781 267.375 -0.226562 263.101562 2.101562 259.726562 L 48.824219 192 L 2.101562 124.273438 C -0.226562 120.898438 -0.675781 116.625 0.898438 112.875 C 2.476562 109.125 5.851562 106.425781 9.824219 105.675781 L 90.75 90.75 L 105.675781 9.824219 C 106.425781 5.851562 109.125 2.476562 112.875 0.898438 C 116.625 -0.675781 120.898438 -0.226562 124.273438 2.101562 L 192 48.824219 L 259.726562 2.101562 C 263.101562 -0.226562 267.375 -0.675781 271.125 0.898438 Z M 120 192 C 120 190.820312 120.027344 189.644531 120.085938 188.46875 C 120.144531 187.289062 120.230469 186.117188 120.347656 184.941406 C 120.460938 183.769531 120.605469 182.601562 120.777344 181.433594 C 120.953125 180.269531 121.152344 179.109375 121.382812 177.953125 C 121.613281 176.796875 121.871094 175.648438 122.15625 174.503906 C 122.445312 173.363281 122.757812 172.226562 123.101562 171.097656 C 123.441406 169.972656 123.8125 168.851562 124.207031 167.742188 C 124.605469 166.632812 125.03125 165.535156 125.480469 164.445312 C 125.929688 163.359375 126.410156 162.28125 126.914062 161.214844 C 127.417969 160.152344 127.945312 159.097656 128.5 158.058594 C 129.058594 157.019531 129.636719 155.996094 130.242188 154.984375 C 130.847656 153.972656 131.480469 152.980469 132.132812 152 C 132.789062 151.019531 133.46875 150.054688 134.167969 149.109375 C 134.871094 148.164062 135.597656 147.234375 136.34375 146.324219 C 137.089844 145.414062 137.859375 144.519531 138.652344 143.648438 C 139.441406 142.773438 140.253906 141.921875 141.089844 141.089844 C 141.921875 140.253906 142.773438 139.441406 143.648438 138.652344 C 144.519531 137.859375 145.414062 137.089844 146.324219 136.34375 C 147.234375 135.59375 148.164062 134.871094 149.109375 134.167969 C 150.054688 133.46875 151.019531 132.789062 152 132.132812 C 152.980469 131.480469 153.972656 130.847656 154.984375 130.242188 C 155.996094 129.636719 157.019531 129.058594 158.058594 128.5 C 159.097656 127.945312 160.152344 127.417969 161.214844 126.914062 C 162.28125 126.410156 163.359375 125.929688 164.445312 125.480469 C 165.535156 125.03125 166.632812 124.605469 167.742188 124.207031 C 168.851562 123.8125 169.972656 123.441406 171.097656 123.101562 C 172.226562 122.757812 173.363281 122.445312 174.503906 122.15625 C 175.648438 121.871094 176.796875 121.613281 177.953125 121.382812 C 179.109375 121.152344 180.269531 120.953125 181.433594 120.777344 C 182.601562 120.605469 183.769531 120.460938 184.941406 120.347656 C 186.117188 120.230469 187.289062 120.144531 188.46875 120.085938 C 189.644531 120.027344 190.820312 120 192 120 C 193.179688 120 194.355469 120.027344 195.53125 120.085938 C 196.710938 120.144531 197.882812 120.230469 199.058594 120.347656 C 200.230469 120.460938 201.398438 120.605469 202.566406 120.777344 C 203.730469 120.953125 204.890625 121.152344 206.046875 121.382812 C 207.203125 121.613281 208.351562 121.871094 209.496094 122.15625 C 210.636719 122.445312 211.773438 122.757812 212.902344 123.101562 C 214.027344 123.441406 215.148438 123.8125 216.257812 124.207031 C 217.367188 124.605469 218.464844 125.03125 219.554688 125.480469 C 220.640625 125.929688 221.71875 126.410156 222.785156 126.914062 C 223.847656 127.417969 224.902344 127.945312 225.941406 128.5 C 226.980469 129.058594 228.003906 129.636719 229.015625 130.242188 C 230.027344 130.847656 231.019531 131.480469 232 132.132812 C 232.980469 132.789062 233.945312 133.46875 234.890625 134.167969 C 235.835938 134.871094 236.765625 135.59375 237.675781 136.34375 C 238.585938 137.089844 239.480469 137.859375 240.351562 138.652344 C 241.226562 139.441406 242.078125 140.253906 242.910156 141.089844 C 243.746094 141.921875 244.558594 142.773438 245.347656 143.648438 C 246.140625 144.519531 246.910156 145.414062 247.65625 146.324219 C 248.402344 147.234375 249.128906 148.164062 249.832031 149.109375 C 250.53125 150.054688 251.210938 151.019531 251.867188 152 C 252.519531 152.980469 253.152344 153.972656 253.757812 154.984375 C 254.363281 155.996094 254.941406 157.019531 255.5 158.058594 C 256.054688 159.097656 256.582031 160.152344 257.085938 161.214844 C 257.589844 162.28125 258.066406 163.359375 258.519531 164.445312 C 258.96875 165.535156 259.394531 166.632812 259.792969 167.742188 C 260.1875 168.851562 260.558594 169.972656 260.898438 171.097656 C 261.242188 172.226562 261.554688 173.363281 261.84375 174.503906 C 262.128906 175.648438 262.386719 176.796875 262.617188 177.953125 C 262.847656 179.109375 263.046875 180.269531 263.21875 181.433594 C 263.394531 182.601562 263.539062 183.769531 263.652344 184.941406 C 263.769531 186.117188 263.855469 187.289062 263.914062 188.46875 C 263.972656 189.644531 264 190.820312 264 192 C 264 193.179688 263.972656 194.355469 263.914062 195.53125 C 263.855469 196.710938 263.769531 197.882812 263.652344 199.058594 C 263.539062 200.230469 263.394531 201.398438 263.21875 202.566406 C 263.046875 203.730469 262.847656 204.890625 262.617188 206.046875 C 262.386719 207.203125 262.128906 208.351562 261.84375 209.496094 C 261.554688 210.636719 261.242188 211.773438 260.898438 212.902344 C 260.558594 214.027344 260.1875 215.148438 259.792969 216.257812 C 259.394531 217.367188 258.96875 218.464844 258.519531 219.554688 C 258.066406 220.640625 257.589844 221.71875 257.085938 222.785156 C 256.582031 223.847656 256.054688 224.902344 255.5 225.941406 C 254.941406 226.980469 254.363281 228.003906 253.757812 229.015625 C 253.152344 230.027344 252.519531 231.019531 251.867188 232 C 251.210938 232.980469 250.53125 233.945312 249.832031 234.890625 C 249.128906 235.835938 248.402344 236.765625 247.65625 237.675781 C 246.910156 238.585938 246.140625 239.480469 245.347656 240.351562 C 244.558594 241.226562 243.746094 242.078125 242.910156 242.910156 C 242.078125 243.746094 241.226562 244.558594 240.351562 245.347656 C 239.480469 246.140625 238.585938 246.910156 237.675781 247.65625 C 236.765625 248.402344 235.835938 249.128906 234.890625 249.832031 C 233.945312 250.53125 232.980469 251.210938 232 251.867188 C 231.019531 252.519531 230.027344 253.152344 229.015625 253.757812 C 228.003906 254.363281 226.980469 254.941406 225.941406 255.5 C 224.902344 256.054688 223.847656 256.582031 222.785156 257.085938 C 221.71875 257.589844 220.640625 258.066406 219.554688 258.519531 C 218.464844 258.96875 217.367188 259.394531 216.257812 259.792969 C 215.148438 260.1875 214.027344 260.558594 212.902344 260.898438 C 211.773438 261.242188 210.636719 261.554688 209.496094 261.84375 C 208.351562 262.128906 207.203125 262.386719 206.046875 262.617188 C 204.890625 262.847656 203.730469 263.046875 202.566406 263.21875 C 201.398438 263.394531 200.230469 263.539062 199.058594 263.652344 C 197.882812 263.769531 196.710938 263.855469 195.53125 263.914062 C 194.355469 263.972656 193.179688 264 192 264 C 190.820312 264 189.644531 263.972656 188.46875 263.914062 C 187.289062 263.855469 186.117188 263.769531 184.941406 263.652344 C 183.769531 263.539062 182.601562 263.394531 181.433594 263.21875 C 180.269531 263.046875 179.109375 262.847656 177.953125 262.617188 C 176.796875 262.386719 175.648438 262.128906 174.503906 261.84375 C 173.363281 261.554688 172.226562 261.242188 171.097656 260.898438 C 169.972656 260.558594 168.851562 260.1875 167.742188 259.792969 C 166.632812 259.394531 165.535156 258.96875 164.445312 258.519531 C 163.359375 258.066406 162.28125 257.589844 161.214844 257.085938 C 160.152344 256.582031 159.097656 256.054688 158.058594 255.5 C 157.019531 254.941406 155.996094 254.363281 154.984375 253.757812 C 153.972656 253.152344 152.980469 252.519531 152 251.867188 C 151.019531 251.210938 150.054688 250.53125 149.109375 249.832031 C 148.164062 249.128906 147.234375 248.402344 146.324219 247.65625 C 145.414062 246.910156 144.519531 246.140625 143.648438 245.347656 C 142.773438 244.558594 141.921875 243.746094 141.089844 242.910156 C 140.253906 242.078125 139.441406 241.226562 138.652344 240.351562 C 137.859375 239.480469 137.089844 238.585938 136.34375 237.675781 C 135.597656 236.765625 134.871094 235.835938 134.167969 234.890625 C 133.46875 233.945312 132.789062 232.980469 132.132812 232 C 131.480469 231.019531 130.847656 230.027344 130.242188 229.015625 C 129.636719 228.003906 129.058594 226.980469 128.5 225.941406 C 127.945312 224.902344 127.417969 223.847656 126.914062 222.785156 C 126.410156 221.71875 125.929688 220.640625 125.480469 219.554688 C 125.03125 218.464844 124.605469 217.367188 124.207031 216.257812 C 123.8125 215.148438 123.441406 214.027344 123.101562 212.902344 C 122.757812 211.773438 122.445312 210.636719 122.15625 209.496094 C 121.871094 208.351562 121.613281 207.203125 121.382812 206.046875 C 121.152344 204.890625 120.953125 203.730469 120.777344 202.566406 C 120.605469 201.398438 120.460938 200.230469 120.347656 199.058594 C 120.230469 197.882812 120.144531 196.710938 120.085938 195.53125 C 120.027344 194.355469 120 193.179688 120 192 Z M 288 192 C 288 190.429688 287.960938 188.859375 287.882812 187.289062 C 287.808594 185.71875 287.691406 184.152344 287.539062 182.589844 C 287.382812 181.027344 287.191406 179.46875 286.960938 177.914062 C 286.730469 176.359375 286.460938 174.8125 286.15625 173.269531 C 285.847656 171.730469 285.503906 170.199219 285.121094 168.675781 C 284.742188 167.148438 284.324219 165.636719 283.867188 164.132812 C 283.410156 162.628906 282.917969 161.136719 282.386719 159.660156 C 281.859375 158.179688 281.292969 156.714844 280.691406 155.261719 C 280.089844 153.8125 279.453125 152.375 278.78125 150.953125 C 278.109375 149.535156 277.40625 148.132812 276.664062 146.746094 C 275.921875 145.359375 275.148438 143.992188 274.34375 142.644531 C 273.535156 141.296875 272.695312 139.972656 271.820312 138.664062 C 270.949219 137.359375 270.042969 136.074219 269.109375 134.8125 C 268.171875 133.550781 267.207031 132.3125 266.210938 131.097656 C 265.210938 129.882812 264.1875 128.695312 263.132812 127.53125 C 262.078125 126.367188 260.992188 125.230469 259.882812 124.117188 C 258.769531 123.007812 257.632812 121.921875 256.46875 120.867188 C 255.304688 119.8125 254.117188 118.789062 252.902344 117.789062 C 251.6875 116.792969 250.449219 115.828125 249.1875 114.890625 C 247.925781 113.957031 246.640625 113.050781 245.335938 112.179688 C 244.027344 111.304688 242.703125 110.464844 241.355469 109.65625 C 240.007812 108.851562 238.640625 108.074219 237.253906 107.335938 C 235.867188 106.59375 234.464844 105.890625 233.046875 105.21875 C 231.625 104.546875 230.1875 103.910156 228.738281 103.308594 C 227.285156 102.707031 225.820312 102.140625 224.339844 101.613281 C 222.863281 101.082031 221.371094 100.589844 219.867188 100.132812 C 218.363281 99.675781 216.851562 99.257812 215.324219 98.878906 C 213.800781 98.496094 212.269531 98.152344 210.730469 97.84375 C 209.1875 97.539062 207.640625 97.269531 206.085938 97.039062 C 204.53125 96.808594 202.972656 96.617188 201.410156 96.460938 C 199.847656 96.308594 198.28125 96.191406 196.710938 96.117188 C 195.140625 96.039062 193.570312 96 192 96 C 190.429688 96 188.859375 96.039062 187.289062 96.117188 C 185.71875 96.191406 184.152344 96.308594 182.589844 96.460938 C 181.027344 96.617188 179.46875 96.808594 177.914062 97.039062 C 176.359375 97.269531 174.8125 97.539062 173.269531 97.84375 C 171.730469 98.152344 170.199219 98.496094 168.675781 98.878906 C 167.148438 99.257812 165.636719 99.675781 164.132812 100.132812 C 162.628906 100.589844 161.136719 101.082031 159.660156 101.613281 C 158.179688 102.140625 156.714844 102.707031 155.261719 103.308594 C 153.8125 103.910156 152.375 104.546875 150.953125 105.21875 C 149.535156 105.890625 148.132812 106.59375 146.746094 107.335938 C 145.359375 108.074219 143.992188 108.851562 142.644531 109.65625 C 141.296875 110.464844 139.972656 111.304688 138.664062 112.179688 C 137.359375 113.050781 136.074219 113.957031 134.8125 114.890625 C 133.550781 115.828125 132.3125 116.792969 131.097656 117.789062 C 129.882812 118.789062 128.695312 119.8125 127.53125 120.867188 C 126.367188 121.921875 125.230469 123.007812 124.117188 124.117188 C 123.007812 125.230469 121.921875 126.367188 120.867188 127.53125 C 119.8125 128.695312 118.789062 129.882812 117.789062 131.097656 C 116.792969 132.3125 115.828125 133.550781 114.890625 134.8125 C 113.957031 136.074219 113.050781 137.359375 112.179688 138.664062 C 111.304688 139.972656 110.464844 141.296875 109.65625 142.644531 C 108.851562 143.992188 108.074219 145.359375 107.335938 146.746094 C 106.59375 148.132812 105.890625 149.535156 105.21875 150.953125 C 104.546875 152.375 103.910156 153.8125 103.308594 155.261719 C 102.707031 156.714844 102.140625 158.179688 101.613281 159.660156 C 101.082031 161.136719 100.589844 162.628906 100.132812 164.132812 C 99.675781 165.636719 99.257812 167.148438 98.878906 168.675781 C 98.496094 170.199219 98.152344 171.730469 97.84375 173.269531 C 97.539062 174.8125 97.269531 176.359375 97.039062 177.914062 C 96.808594 179.46875 96.617188 181.027344 96.460938 182.589844 C 96.308594 184.152344 96.191406 185.71875 96.117188 187.289062 C 96.039062 188.859375 96 190.429688 96 192 C 96 193.570312 96.039062 195.140625 96.117188 196.710938 C 96.191406 198.28125 96.308594 199.847656 96.460938 201.410156 C 96.617188 202.972656 96.808594 204.53125 97.039062 206.085938 C 97.269531 207.640625 97.539062 209.1875 97.84375 210.730469 C 98.152344 212.269531 98.496094 213.800781 98.878906 215.324219 C 99.257812 216.851562 99.675781 218.363281 100.132812 219.867188 C 100.589844 221.371094 101.082031 222.863281 101.613281 224.339844 C 102.140625 225.820312 102.707031 227.285156 103.308594 228.738281 C 103.910156 230.1875 104.546875 231.625 105.21875 233.046875 C 105.890625 234.464844 106.59375 235.867188 107.335938 237.253906 C 108.074219 238.640625 108.851562 240.007812 109.65625 241.355469 C 110.464844 242.703125 111.304688 244.027344 112.179688 245.335938 C 113.050781 246.640625 113.957031 247.925781 114.890625 249.1875 C 115.828125 250.449219 116.792969 251.6875 117.789062 252.902344 C 118.789062 254.117188 119.8125 255.304688 120.867188 256.46875 C 121.921875 257.632812 123.007812 258.769531 124.117188 259.882812 C 125.230469 260.992188 126.367188 262.078125 127.53125 263.132812 C 128.695312 264.1875 129.882812 265.210938 131.097656 266.207031 C 132.3125 267.207031 133.550781 268.171875 134.8125 269.109375 C 136.074219 270.042969 137.359375 270.949219 138.664062 271.820312 C 139.972656 272.695312 141.296875 273.535156 142.644531 274.34375 C 143.992188 275.148438 145.359375 275.921875 146.746094 276.664062 C 148.132812 277.40625 149.535156 278.109375 150.953125 278.78125 C 152.375 279.453125 153.8125 280.089844 155.261719 280.691406 C 156.714844 281.292969 158.179688 281.859375 159.660156 282.386719 C 161.136719 282.917969 162.628906 283.410156 164.132812 283.867188 C 165.636719 284.324219 167.148438 284.742188 168.675781 285.121094 C 170.199219 285.503906 171.730469 285.847656 173.269531 286.15625 C 174.8125 286.460938 176.359375 286.730469 177.914062 286.960938 C 179.46875 287.191406 181.027344 287.382812 182.589844 287.539062 C 184.152344 287.691406 185.71875 287.808594 187.289062 287.882812 C 188.859375 287.960938 190.429688 288 192 288 C 193.570312 288 195.140625 287.960938 196.710938 287.882812 C 198.28125 287.808594 199.847656 287.691406 201.410156 287.539062 C 202.972656 287.382812 204.53125 287.191406 206.085938 286.960938 C 207.640625 286.730469 209.1875 286.460938 210.730469 286.15625 C 212.269531 285.847656 213.800781 285.503906 215.324219 285.121094 C 216.851562 284.742188 218.363281 284.324219 219.867188 283.867188 C 221.371094 283.410156 222.863281 282.917969 224.339844 282.386719 C 225.820312 281.859375 227.285156 281.292969 228.738281 280.691406 C 230.1875 280.089844 231.625 279.453125 233.046875 278.78125 C 234.464844 278.109375 235.867188 277.40625 237.253906 276.664062 C 238.640625 275.921875 240.007812 275.148438 241.355469 274.34375 C 242.703125 273.535156 244.027344 272.695312 245.335938 271.820312 C 246.640625 270.949219 247.925781 270.042969 249.1875 269.109375 C 250.449219 268.171875 251.6875 267.207031 252.902344 266.207031 C 254.117188 265.210938 255.304688 264.1875 256.46875 263.132812 C 257.632812 262.078125 258.769531 260.992188 259.882812 259.882812 C 260.992188 258.769531 262.078125 257.632812 263.132812 256.46875 C 264.1875 255.304688 265.210938 254.117188 266.210938 252.902344 C 267.207031 251.6875 268.171875 250.449219 269.109375 249.1875 C 270.042969 247.925781 270.949219 246.640625 271.820312 245.335938 C 272.695312 244.027344 273.535156 242.703125 274.34375 241.355469 C 275.148438 240.007812 275.921875 238.640625 276.664062 237.253906 C 277.40625 235.867188 278.109375 234.464844 278.78125 233.046875 C 279.453125 231.625 280.089844 230.1875 280.691406 228.738281 C 281.292969 227.285156 281.859375 225.820312 282.386719 224.339844 C 282.917969 222.863281 283.410156 221.371094 283.867188 219.867188 C 284.324219 218.363281 284.742188 216.851562 285.121094 215.324219 C 285.503906 213.800781 285.847656 212.269531 286.15625 210.730469 C 286.460938 209.1875 286.730469 207.640625 286.960938 206.085938 C 287.191406 204.53125 287.382812 202.972656 287.539062 201.410156 C 287.691406 199.847656 287.808594 198.28125 287.882812 196.710938 C 287.960938 195.140625 288 193.570312 288 192 Z M 288 192 " fill-opacity="1" fill-rule="nonzero"/></svg>